{
    "accessors" : [
        {
            "bufferView" : 0, 
            "componentType" : 5123, 
            "count" : 2025, 
            "max" : [
                1600
            ], 
            "min" : [
                0
            ], 
            "type" : "SCALAR"
        }, 
        {
            "bufferView" : 1, 
            "componentType" : 5126, 
            "count" : 1601, 
            "max" : [
                0.3564203381538391, 
                -0.3067687153816223, 
                -0.0010216578375548124
            ], 
            "min" : [
                -0.3563324213027954, 
                -0.34590545296669006, 
                -2.028980255126953
            ], 
            "type" : "VEC3"
        }, 
        {
            "bufferView" : 2, 
            "componentType" : 5126, 
            "count" : 1601, 
            "max" : [
                1.0, 
                1.0, 
                1.0
            ], 
            "min" : [
                -1.0, 
                -1.0, 
                -1.0
            ], 
            "type" : "VEC3"
        }, 
        {
            "bufferView" : 3, 
            "componentType" : 5126, 
            "count" : 1601, 
            "max" : [
                0.6474294066429138, 
                0.9871360659599304, 
                1.0, 
                1.0
            ], 
            "min" : [
                -0.9999996423721313, 
                -1.0, 
                -0.6474708318710327, 
                -1.0
            ], 
            "type" : "VEC4"
        }, 
        {
            "bufferView" : 4, 
            "componentType" : 5126, 
            "count" : 1601, 
            "max" : [
                3.5628721714019775, 
                3.6538472175598145
            ], 
            "min" : [
                -2.29109263420105, 
                -2.960887908935547
            ], 
            "type" : "VEC2"
        }, 
        {
            "bufferView" : 5, 
            "componentType" : 5123, 
            "count" : 2016, 
            "max" : [
                759
            ], 
            "min" : [
                0
            ], 
            "type" : "SCALAR"
        }, 
        {
            "bufferView" : 6, 
            "componentType" : 5126, 
            "count" : 760, 
            "max" : [
                0.019673269242048264, 
                0.05176375061273575, 
                0.14383548498153687
            ], 
            "min" : [
                -0.08864495903253555, 
                -0.08638284355401993, 
                -0.06776160001754761
            ], 
            "type" : "VEC3"
        }, 
        {
            "bufferView" : 7, 
            "componentType" : 5126, 
            "count" : 760, 
            "max" : [
                1.0, 
                1.0, 
                1.0
            ], 
            "min" : [
                -1.0, 
                -1.0, 
                -1.0
            ], 
            "type" : "VEC3"
        }
    ], 
    "asset" : {
        "generator" : "Khronos Blender glTF 2.0 exporter", 
        "version" : "2.0"
    }, 
    "bufferViews" : [
        {
            "buffer" : 0, 
            "byteLength" : 4050, 
            "byteOffset" : 0, 
            "target" : 34963
        }, 
        {
            "buffer" : 0, 
            "byteLength" : 19212, 
            "byteOffset" : 4052, 
            "target" : 34962
        }, 
        {
            "buffer" : 0, 
            "byteLength" : 19212, 
            "byteOffset" : 23264, 
            "target" : 34962
        }, 
        {
            "buffer" : 0, 
            "byteLength" : 25616, 
            "byteOffset" : 42476, 
            "target" : 34962
        }, 
        {
            "buffer" : 0, 
            "byteLength" : 12808, 
            "byteOffset" : 68092, 
            "target" : 34962
        }, 
        {
            "buffer" : 0, 
            "byteLength" : 4032, 
            "byteOffset" : 80900, 
            "target" : 34963
        }, 
        {
            "buffer" : 0, 
            "byteLength" : 9120, 
            "byteOffset" : 84932, 
            "target" : 34962
        }, 
        {
            "buffer" : 0, 
            "byteLength" : 9120, 
            "byteOffset" : 94052, 
            "target" : 34962
        }
    ], 
    "buffers" : [
        {
            "byteLength" : 103172, 
            "uri" : "data:application/octet-stream;base64,"
        }
    ], 
    "images" : [
        {
            "uri" : "data:image/png;base64,"
        }
    ], 
    "materials" : [
        {
            "name" : "cromado", 
            "pbrMetallicRoughness" : {
                "baseColorFactor" : [
                    0.31668800115585327, 
                    0.2996218800544739, 
                    0.12981747090816498, 
                    1.0
                ], 
                "metallicFactor" : 0.0
            }
        }, 
        {
            "name" : "madera_puerta", 
            "pbrMetallicRoughness" : {
                "baseColorFactor" : [
                    0.6851677996690242, 
                    0.6437339401801516, 
                    0.40581899293987433, 
                    1.0
                ], 
                "baseColorTexture" : {
                    "index" : 0
                }, 
                "metallicFactor" : 0.0
            }
        }
    ], 
    "meshes" : [
        {
            "name" : "Mesh", 
            "primitives" : [
                {
                    "attributes" : {
                        "NORMAL" : 2, 
                        "POSITION" : 1, 
                        "TANGENT" : 3, 
                        "TEXCOORD_0" : 4
                    }, 
                    "indices" : 0, 
                    "material" : 1
                }
            ]
        }, 
        {
            "name" : "Plane", 
            "primitives" : [
                {
                    "attributes" : {
                        "NORMAL" : 7, 
                        "POSITION" : 6
                    }, 
                    "indices" : 5, 
                    "material" : 0
                }
            ]
        }
    ], 
    "nodes" : [
        {
            "name" : "Camera", 
            "rotation" : [
                0.6327048540115356, 
                0.16598540544509888, 
                -0.14488068222999573, 
                0.7423900365829468
            ], 
            "scale" : [
                1.0, 
                1.0, 
                0.9999999403953552
            ], 
            "translation" : [
                1.9974346160888672, 
                1.8994029760360718, 
                4.311781883239746
            ]
        }, 
        {
            "mesh" : 0, 
            "name" : "door", 
            "rotation" : [
                0.7071061730384827, 
                -0.0008843318209983408, 
                0.0008843317627906799, 
                0.7071062922477722
            ], 
            "translation" : [
                0.36193376779556274, 
                1.1920928955078125e-07, 
                0.32001954317092896
            ]
        }, 
        {
            "name" : "Lamp", 
            "rotation" : [
                0.16907575726509094, 
                0.7558802962303162, 
                -0.27217137813568115, 
                0.570947527885437
            ], 
            "scale" : [
                1.0, 
                1.0, 
                0.9999999403953552
            ], 
            "translation" : [
                -1.413214087486267, 
                1.841691017150879, 
                1.4869500398635864
            ]
        }, 
        {
            "mesh" : 1, 
            "name" : "maneta_puerta", 
            "rotation" : [
                0.7071051597595215, 
                -0.001501400605775416, 
                0.001501400489360094, 
                0.7071052193641663
            ], 
            "translation" : [
                0.661102294921875, 
                1.049823522567749, 
                0.0122595876455307
            ]
        }
    ], 
    "samplers" : [
        {}
    ], 
    "scene" : 0, 
    "scenes" : [
        {
            "name" : "Scene", 
            "nodes" : [
                3, 
                1, 
                2, 
                0
            ]
        }
    ], 
    "textures" : [
        {
            "sampler" : 0, 
            "source" : 0
        }
    ]
}
