{
    "accessors" : [
        {
            "bufferView" : 0, 
            "componentType" : 5123, 
            "count" : 3024, 
            "max" : [
                609
            ], 
            "min" : [
                0
            ], 
            "type" : "SCALAR"
        }, 
        {
            "bufferView" : 1, 
            "componentType" : 5126, 
            "count" : 610, 
            "max" : [
                1.4197614192962646, 
                8.688035011291504, 
                1.419761061668396
            ], 
            "min" : [
                -1.4197607040405273, 
                -1.0, 
                -1.4197607040405273
            ], 
            "type" : "VEC3"
        }, 
        {
            "bufferView" : 2, 
            "componentType" : 5126, 
            "count" : 610, 
            "max" : [
                0.9942625164985657, 
                0.809564471244812, 
                0.9942625164985657
            ], 
            "min" : [
                -0.9942625164985657, 
                -0.729850172996521, 
                -0.9942625164985657
            ], 
            "type" : "VEC3"
        }, 
        {
            "bufferView" : 3, 
            "componentType" : 5126, 
            "count" : 610, 
            "max" : [
                0.9963509440422058, 
                1.0041925036348403
            ], 
            "min" : [
                -0.0033212220296263695, 
                0.14137959480285645
            ], 
            "type" : "VEC2"
        }
    ], 
    "asset" : {
        "generator" : "Khronos Blender glTF 2.0 exporter", 
        "version" : "2.0"
    }, 
    "bufferViews" : [
        {
            "buffer" : 0, 
            "byteLength" : 6048, 
            "byteOffset" : 0, 
            "target" : 34963
        }, 
        {
            "buffer" : 0, 
            "byteLength" : 7320, 
            "byteOffset" : 6048, 
            "target" : 34962
        }, 
        {
            "buffer" : 0, 
            "byteLength" : 7320, 
            "byteOffset" : 13368, 
            "target" : 34962
        }, 
        {
            "buffer" : 0, 
            "byteLength" : 4880, 
            "byteOffset" : 20688, 
            "target" : 34962
        }
    ], 
    "buffers" : [
        {
            "byteLength" : 25568, 
            "uri" : "data:application/octet-stream;base64,"
        }
    ], 
    "images" : [
        {
            "uri" : "data:image/png;base64,"
        }, 
        {
            "uri" : "data:image/png;base64,"
        }
    ], 
    "materials" : [
        {
            "name" : "Material", 
            "normalTexture" : {
                "index" : 1
            }, 
            "pbrMetallicRoughness" : {
                "baseColorFactor" : [
                    0.6400000190734865, 
                    0.6400000190734865, 
                    0.6400000190734865, 
                    1.0
                ], 
                "baseColorTexture" : {
                    "index" : 0
                }, 
                "metallicFactor" : 0.0
            }
        }
    ], 
    "meshes" : [
        {
            "name" : "Cilindro", 
            "primitives" : [
                {
                    "attributes" : {
                        "NORMAL" : 2, 
                        "POSITION" : 1, 
                        "TEXCOORD_0" : 3
                    }, 
                    "indices" : 0, 
                    "material" : 0
                }
            ]
        }
    ], 
    "nodes" : [
        {
            "mesh" : 0, 
            "name" : "Cilindro", 
            "rotation" : [
                0.7071068286895752, 
                0.0, 
                -0.0, 
                0.7071068286895752
            ], 
            "scale" : [
                0.6071925163269043, 
                0.6071925163269043, 
                0.6071925163269043
            ], 
            "translation" : [
                0.0, 
                0.7028616666793823, 
                -4.020057201385498
            ]
        }, 
        {
            "name" : "Punto", 
            "translation" : [
                2.4056036472320557, 
                -0.7495183944702148, 
                4.401974201202393
            ]
        }, 
        {
            "name" : "Punto.001", 
            "translation" : [
                7.414501190185547, 
                8.424666404724121, 
                5.888248920440674
            ]
        }, 
        {
            "name" : "Sol", 
            "translation" : [
                -3.3209028244018555, 
                4.7358856201171875, 
                4.794578552246094
            ]
        }
    ], 
    "samplers" : [
        {}
    ], 
    "scene" : 0, 
    "scenes" : [
        {
            "name" : "Scene", 
            "nodes" : [
                2, 
                3, 
                1, 
                0
            ]
        }
    ], 
    "textures" : [
        {
            "sampler" : 0, 
            "source" : 0
        }, 
        {
            "sampler" : 0, 
            "source" : 1
        }
    ]
}
