{
    "accessors" : [
        {
            "bufferView" : 0, 
            "componentType" : 5121, 
            "count" : 282, 
            "max" : [
                179
            ], 
            "min" : [
                0
            ], 
            "type" : "SCALAR"
        }, 
        {
            "bufferView" : 1, 
            "componentType" : 5126, 
            "count" : 180, 
            "max" : [
                3.658088207244873, 
                0.02807505428791046, 
                0.6443601846694946
            ], 
            "min" : [
                -1.381716012954712, 
                -0.05038851499557495, 
                -3.973294734954834
            ], 
            "type" : "VEC3"
        }, 
        {
            "bufferView" : 2, 
            "componentType" : 5126, 
            "count" : 180, 
            "max" : [
                1.0, 
                1.0, 
                1.0
            ], 
            "min" : [
                -1.0, 
                -1.0, 
                -1.0
            ], 
            "type" : "VEC3"
        }
    ], 
    "asset" : {
        "generator" : "Khronos Blender glTF 2.0 exporter", 
        "version" : "2.0"
    }, 
    "bufferViews" : [
        {
            "buffer" : 0, 
            "byteLength" : 282, 
            "byteOffset" : 0, 
            "target" : 34963
        }, 
        {
            "buffer" : 0, 
            "byteLength" : 2160, 
            "byteOffset" : 284, 
            "target" : 34962
        }, 
        {
            "buffer" : 0, 
            "byteLength" : 2160, 
            "byteOffset" : 2444, 
            "target" : 34962
        }
    ], 
    "buffers" : [
        {
            "byteLength" : 4604, 
            "uri" : "data:application/octet-stream;base64,"
        }
    ], 
    "materials" : [
        {
            "name" : "Material.001", 
            "pbrMetallicRoughness" : {
                "baseColorFactor" : [
                    0.6400000190734865, 
                    0.5215012628063747, 
                    0.37491670213515604, 
                    1.0
                ], 
                "metallicFactor" : 0.0
            }
        }
    ], 
    "meshes" : [
        {
            "name" : "Cube", 
            "primitives" : [
                {
                    "attributes" : {
                        "NORMAL" : 2, 
                        "POSITION" : 1
                    }, 
                    "indices" : 0, 
                    "material" : 0
                }
            ]
        }
    ], 
    "nodes" : [
        {
            "name" : "Camera", 
            "rotation" : [
                0.6327048540115356, 
                0.16598540544509888, 
                -0.14488068222999573, 
                0.7423900365829468
            ], 
            "scale" : [
                1.0, 
                1.0, 
                0.9999999403953552
            ], 
            "translation" : [
                0.31121206283569336, 
                1.8994029760360718, 
                4.975889682769775
            ]
        }, 
        {
            "name" : "Lamp", 
            "rotation" : [
                0.16907575726509094, 
                0.7558802962303162, 
                -0.27217137813568115, 
                0.570947527885437
            ], 
            "scale" : [
                1.0, 
                1.0, 
                0.9999999403953552
            ], 
            "translation" : [
                -3.0994367599487305, 
                1.841691017150879, 
                2.151057720184326
            ]
        }, 
        {
            "mesh" : 0, 
            "name" : "marc", 
            "rotation" : [
                0.7071068286895752, 
                0.0, 
                -0.0, 
                0.7071068286895752
            ], 
            "translation" : [
                -1.3298022747039795, 
                0.6443601846694946, 
                -0.015996277332305908
            ]
        }
    ], 
    "scene" : 0, 
    "scenes" : [
        {
            "name" : "Scene", 
            "nodes" : [
                2, 
                1, 
                0
            ]
        }
    ]
}
